<?xml version="1.0" encoding="utf-8"?>
<svg viewBox="62.669 41.281 332.801 48.834" xmlns="http://www.w3.org/2000/svg">
  <path class="cls-1" d="M 172.319 74.725 L 172.319 72.165 L 182.959 72.165 L 173.279 48.165 C 172.889 47.263 172.555 46.338 172.279 45.395 L 172.279 41.855 L 173.979 41.855 L 193.489 89.455 L 190.829 89.455 C 190.55 89.464 190.276 89.371 190.059 89.195 C 189.852 89.02 189.69 88.797 189.589 88.545 L 184.009 74.725 L 172.319 74.725 Z M 94.489 72.165 L 84.799 48.165 C 84.409 47.263 84.075 46.338 83.799 45.395 L 83.799 41.855 L 85.499 41.855 L 105.019 89.455 L 102.359 89.455 C 102.079 89.465 101.805 89.373 101.589 89.195 C 101.379 89.02 101.214 88.797 101.109 88.545 L 95.529 74.725 L 83.839 74.725 L 83.839 72.165 L 94.489 72.165 Z M 172.319 41.855 L 172.319 45.345 L 172.319 45.295 C 172.189 45.825 172.039 46.295 171.879 46.815 C 171.739 47.267 171.572 47.711 171.379 48.145 L 161.689 72.145 L 172.339 72.145 L 172.339 74.705 L 160.629 74.705 L 155.049 88.545 C 154.955 88.797 154.792 89.019 154.579 89.185 C 154.348 89.365 154.062 89.46 153.769 89.455 L 151.139 89.455 L 170.619 41.855 L 172.319 41.855 Z M 146.709 81.455 C 146.928 81.45 147.138 81.537 147.289 81.695 L 148.629 83.145 C 147.654 84.187 146.583 85.134 145.429 85.975 C 144.241 86.83 142.964 87.555 141.619 88.135 C 140.158 88.735 138.635 89.178 137.079 89.455 C 135.29 89.8 133.471 89.967 131.649 89.955 C 128.543 89.987 125.462 89.395 122.589 88.215 C 119.902 87.104 117.484 85.429 115.499 83.305 C 113.467 81.081 111.905 78.468 110.909 75.625 C 109.793 72.41 109.242 69.027 109.279 65.625 C 109.237 62.253 109.806 58.903 110.959 55.735 C 111.997 52.881 113.598 50.265 115.669 48.045 C 117.703 45.877 120.179 44.171 122.929 43.045 C 125.898 41.842 129.077 41.243 132.279 41.285 C 135.233 41.228 138.17 41.74 140.929 42.795 C 143.448 43.807 145.769 45.252 147.789 47.065 L 146.789 48.585 C 146.592 48.848 146.278 48.998 145.949 48.985 C 145.452 48.866 144.997 48.61 144.639 48.245 C 143.842 47.629 142.996 47.081 142.109 46.605 C 140.834 45.931 139.494 45.388 138.109 44.985 C 136.23 44.451 134.282 44.201 132.329 44.245 C 129.631 44.211 126.952 44.714 124.449 45.725 C 122.116 46.671 120.017 48.114 118.299 49.955 C 116.528 51.907 115.167 54.195 114.299 56.685 C 113.302 59.551 112.815 62.57 112.859 65.605 C 112.814 68.667 113.308 71.714 114.319 74.605 C 115.188 77.085 116.548 79.364 118.319 81.305 C 119.997 83.118 122.043 84.554 124.319 85.515 C 126.699 86.502 129.253 87.002 131.829 86.985 C 133.36 87 134.888 86.886 136.399 86.645 C 137.655 86.446 138.886 86.111 140.069 85.645 C 141.147 85.218 142.176 84.679 143.139 84.035 C 144.165 83.352 145.134 82.59 146.039 81.755 C 146.145 81.668 146.259 81.591 146.379 81.525 C 146.483 81.478 146.596 81.454 146.709 81.455 Z M 83.839 45.345 L 83.839 45.295 C 83.699 45.825 83.559 46.295 83.399 46.815 C 83.239 47.335 83.069 47.745 82.889 48.145 L 73.209 72.145 L 83.839 72.145 L 83.839 74.705 L 72.139 74.705 L 66.569 88.545 C 66.475 88.797 66.312 89.019 66.099 89.185 C 65.87 89.368 65.583 89.463 65.289 89.455 L 62.669 89.455 L 82.139 41.855 L 83.839 41.855 L 83.839 45.345 Z" style="fill: rgb(255, 255, 255);"/>
  <path class="cls-1" d="M 370.739 90.075 L 370.739 80.915 C 372.67 80.959 374.591 80.619 376.389 79.915 C 378.007 79.255 379.448 78.228 380.599 76.915 C 381.79 75.513 382.682 73.883 383.219 72.125 C 383.858 70.056 384.169 67.9 384.139 65.735 C 384.166 63.58 383.856 61.434 383.219 59.375 C 382.679 57.62 381.788 55.994 380.599 54.595 C 379.444 53.286 378.004 52.259 376.389 51.595 C 374.592 50.885 372.671 50.545 370.739 50.595 L 370.739 41.455 C 374.203 41.408 377.641 42.043 380.859 43.325 C 383.79 44.487 386.454 46.232 388.689 48.455 C 390.859 50.665 392.559 53.291 393.689 56.175 C 394.894 59.22 395.498 62.47 395.469 65.745 C 395.501 69.033 394.897 72.296 393.689 75.355 C 391.393 81.24 386.753 85.906 380.879 88.235 C 377.661 89.516 374.223 90.151 370.759 90.105 L 370.739 90.075 Z M 370.739 41.455 L 370.739 50.575 C 368.805 50.53 366.881 50.87 365.079 51.575 C 363.461 52.236 362.016 53.263 360.859 54.575 C 359.668 55.975 358.77 57.6 358.219 59.355 C 357.586 61.414 357.279 63.56 357.309 65.715 C 357.277 67.879 357.584 70.035 358.219 72.105 C 358.768 73.863 359.666 75.492 360.859 76.895 C 362.013 78.21 363.458 79.238 365.079 79.895 C 366.883 80.595 368.805 80.934 370.739 80.895 L 370.739 90.055 C 367.284 90.09 363.854 89.454 360.639 88.185 C 354.75 85.866 350.094 81.199 347.789 75.305 C 346.579 72.247 345.971 68.983 345.999 65.695 C 345.972 62.409 346.58 59.149 347.789 56.095 C 348.915 53.209 350.616 50.582 352.789 48.375 C 355.021 46.152 357.682 44.406 360.609 43.245 C 363.837 41.993 367.278 41.385 370.739 41.455 Z M 322.019 89.455 L 322.019 80.775 C 322.926 80.61 323.811 80.345 324.659 79.985 C 326.273 79.318 327.712 78.292 328.869 76.985 C 330.06 75.572 330.952 73.932 331.489 72.165 C 332.128 70.089 332.439 67.926 332.409 65.755 C 332.436 63.596 332.125 61.447 331.489 59.385 C 330.949 57.615 330.058 55.972 328.869 54.555 C 327.71 53.251 326.27 52.225 324.659 51.555 C 323.81 51.199 322.925 50.934 322.019 50.765 L 322.019 42.065 C 324.459 42.278 326.857 42.837 329.139 43.725 C 332.048 44.846 334.698 46.547 336.929 48.725 C 339.098 50.859 340.801 53.419 341.929 56.245 C 343.138 59.264 343.743 62.492 343.709 65.745 C 343.746 69.007 343.141 72.245 341.929 75.275 C 340.799 78.108 339.097 80.678 336.929 82.825 C 334.701 85.005 332.05 86.707 329.139 87.825 C 326.854 88.698 324.457 89.246 322.019 89.455 Z M 322.019 42.115 L 322.019 50.735 C 321.029 50.559 320.025 50.472 319.019 50.475 L 311.629 50.475 L 311.629 81.045 L 319.019 81.045 C 320.026 81.048 321.03 80.958 322.019 80.775 L 322.019 89.455 C 321.022 89.552 320.021 89.599 319.019 89.595 L 300.519 89.595 L 300.519 41.925 L 319.019 41.925 C 320.019 41.925 321.019 41.925 322.019 42.065 L 322.019 42.115 Z M 270.769 90.115 L 270.769 80.915 C 272.704 80.959 274.628 80.619 276.429 79.915 C 278.044 79.255 279.482 78.228 280.629 76.915 C 281.827 75.516 282.722 73.885 283.259 72.125 C 283.895 70.055 284.202 67.899 284.169 65.735 C 284.2 63.58 283.893 61.434 283.259 59.375 C 282.72 57.618 281.825 55.991 280.629 54.595 C 279.478 53.286 278.041 52.259 276.429 51.595 C 274.629 50.885 272.704 50.545 270.769 50.595 L 270.769 41.455 C 274.233 41.407 277.672 42.042 280.889 43.325 C 286.76 45.638 291.412 50.279 293.739 56.145 C 294.94 59.191 295.541 62.44 295.509 65.715 C 295.544 69.002 294.943 72.265 293.739 75.325 C 292.608 78.21 290.907 80.839 288.739 83.055 C 286.524 85.288 283.872 87.041 280.949 88.205 C 277.732 89.487 274.293 90.122 270.829 90.075 L 270.769 90.115 Z M 244.689 50.685 L 231.289 50.685 L 231.289 89.545 L 220.239 89.545 L 220.239 50.685 L 206.839 50.685 L 206.839 41.925 L 244.689 41.925 L 244.689 50.685 Z M 270.769 41.455 L 270.769 50.575 C 268.832 50.53 266.905 50.87 265.099 51.575 C 263.484 52.237 262.043 53.263 260.889 54.575 C 259.691 55.97 258.792 57.597 258.249 59.355 C 257.616 61.414 257.309 63.56 257.339 65.715 C 257.307 67.879 257.614 70.035 258.249 72.105 C 258.79 73.866 259.689 75.497 260.889 76.895 C 262.039 78.21 263.481 79.238 265.099 79.895 C 266.906 80.595 268.832 80.934 270.769 80.895 L 270.769 90.055 C 267.313 90.091 263.883 89.455 260.669 88.185 C 254.781 85.863 250.122 81.197 247.809 75.305 C 246.607 72.244 246.003 68.982 246.029 65.695 C 246.004 62.41 246.608 59.151 247.809 56.095 C 248.936 53.209 250.637 50.582 252.809 48.375 C 255.041 46.152 257.702 44.406 260.629 43.245 C 263.86 41.991 267.305 41.383 270.769 41.455 Z" style="fill: rgb(255, 255, 255);"/>
</svg>